<?xml version="1.0" standalone="no"?>
<!DOCTYPE svg PUBLIC "-//W3C//DTD SVG 20010904//EN"
 "http://www.w3.org/TR/2001/REC-SVG-20010904/DTD/svg10.dtd">
<svg version="1.0" xmlns="http://www.w3.org/2000/svg"
 width="201.000000pt" height="326.000000pt" viewBox="0 0 201.000000 326.000000"
 preserveAspectRatio="xMidYMid meet">
<metadata>
Created by potrace 1.14, written by Peter Selinger 2001-2017
</metadata>
<g transform="translate(0.000000,326.000000) scale(0.100000,-0.100000)"
fill="#000000" stroke="none">
<path d="M1515 3216 l-90 -22 0 -72 c0 -40 2 -225 3 -412 l2 -340 94 47 94 47
6 50 c3 28 8 203 12 389 6 326 6 337 -12 336 -11 -1 -59 -11 -109 -23z"/>
<path d="M960 2685 c0 -7 7 -29 15 -49 l15 -36 79 0 79 0 16 41 c9 23 16 43
14 44 -2 1 -51 5 -110 7 -81 4 -108 2 -108 -7z"/>
<path d="M1705 2320 c-39 -22 -74 -41 -78 -43 -8 -2 9 -847 18 -855 2 -2 41
-1 86 3 l82 7 -5 179 -5 179 63 0 c38 0 64 4 64 10 0 6 -7 75 -16 153 -15 139
-16 142 -61 214 -25 40 -49 76 -54 79 -5 3 -9 24 -9 47 0 68 -7 70 -85 27z"/>
<path d="M518 2277 c-18 -14 -43 -61 -72 -137 -26 -63 -46 -119 -46 -125 0 -6
19 -36 42 -68 33 -45 47 -57 69 -57 26 0 28 2 33 63 10 112 15 347 8 347 -4 0
-19 -10 -34 -23z"/>
<path d="M443 1338 c-66 -153 -68 -155 -131 -134 -23 8 -23 7 -8 -17 25 -37
116 -59 116 -28 0 5 9 29 20 54 l20 45 45 -14 46 -13 23 52 23 52 12 -60 c9
-47 57 -192 64 -196 1 0 205 -22 452 -48 l450 -48 80 79 c60 58 87 78 107 78
27 0 27 0 30 90 3 76 1 89 -12 86 -8 -3 -51 -8 -96 -11 l-81 -7 -7 -106 c-3
-58 -7 -106 -9 -107 -1 -1 -22 -5 -47 -7 l-45 -5 3 98 c2 55 0 99 -3 99 -4 0
-201 18 -438 40 -238 22 -439 40 -447 39 -30 -3 -40 1 -40 16 0 16 -52 115
-60 115 -3 0 -34 -64 -67 -142z"/>
<path d="M180 1413 c-12 -26 -37 -85 -57 -130 l-36 -81 -40 14 c-51 18 -54 18
-32 -6 16 -18 92 -47 100 -38 1 2 12 24 23 51 12 26 26 47 31 47 9 0 -30 -104
-44 -118 -2 -2 -18 1 -36 7 -18 6 -34 9 -37 7 -9 -10 11 -25 54 -40 l45 -15
21 49 c11 28 25 50 29 50 13 0 12 -5 -13 -62 -22 -52 -31 -56 -91 -32 -17 6
-18 5 -6 -13 13 -21 86 -49 97 -38 4 4 30 59 58 123 36 81 56 116 66 114 10
-1 23 16 37 47 11 27 21 52 21 55 0 3 -30 15 -67 26 -38 11 -76 23 -85 26 -12
4 -22 -7 -38 -43z"/>
<path d="M1896 1393 c-3 -21 -6 -109 -6 -195 l0 -158 -34 0 c-19 0 -42 -3 -51
-6 -14 -6 -14 -8 -1 -23 11 -12 28 -15 65 -13 l51 4 0 54 c0 33 4 54 11 54 6
0 8 -7 5 -16 -3 -9 -6 -38 -6 -65 l0 -49 -38 0 c-45 0 -56 -8 -41 -27 7 -7 32
-13 60 -13 l49 0 0 55 c0 30 5 55 10 55 6 0 10 -28 10 -65 l0 -65 -50 0 c-48
0 -50 -1 -40 -21 10 -17 19 -20 63 -17 l52 3 3 194 2 194 -51 79 c-28 43 -53
78 -54 78 -1 0 -5 -17 -9 -37z"/>
<path d="M622 653 c-62 -50 -72 -63 -72 -90 0 -17 -7 -67 -15 -110 -8 -43 -15
-126 -15 -186 l0 -107 31 -19 c34 -21 169 -41 274 -41 94 0 193 49 279 138
l61 64 5 -117 5 -117 49 -20 c65 -25 235 -48 299 -41 108 13 269 146 298 246
5 17 9 98 9 179 l0 147 -42 6 c-24 3 -140 17 -258 30 l-214 25 -63 -62 -62
-61 -3 69 -3 69 -230 27 c-126 15 -237 27 -246 27 -9 1 -48 -25 -87 -56z"/>
</g>
</svg>
