<?xml version="1.0" standalone="no"?>
<!DOCTYPE svg PUBLIC "-//W3C//DTD SVG 20010904//EN"
 "http://www.w3.org/TR/2001/REC-SVG-20010904/DTD/svg10.dtd">
<svg version="1.0" xmlns="http://www.w3.org/2000/svg"
 width="330.000000pt" height="503.000000pt" viewBox="0 0 330.000000 503.000000"
 preserveAspectRatio="xMidYMid meet">
<metadata>
Created by potrace 1.14, written by Peter Selinger 2001-2017
</metadata>
<g transform="translate(0.000000,503.000000) scale(0.100000,-0.100000)"
fill="#000000" stroke="none">
<path d="M2560 5020 c-184 -4 -427 -15 -540 -24 -218 -18 -494 -38 -755 -57
-88 -6 -161 -12 -162 -13 -1 -1 16 -190 37 -421 22 -231 47 -499 55 -595 9
-96 18 -190 21 -209 l5 -33 177 6 c97 3 215 7 262 9 l85 2 3 -51 3 -51 -123
-7 c-152 -9 -188 -15 -195 -33 -9 -23 4 -26 45 -10 69 28 190 6 308 -55 27
-15 56 -34 64 -43 13 -15 9 -17 -41 -13 l-54 3 -3 -102 -3 -102 72 -7 71 -7
-5 -41 c-5 -37 13 -190 24 -200 5 -5 64 -9 102 -7 23 1 27 5 27 31 l0 30 -60
0 -61 0 3 83 3 82 53 -1 c44 -2 52 1 48 15 -2 9 -7 28 -10 44 -6 25 -10 27
-51 27 l-45 0 3 93 3 92 69 37 c39 20 99 44 135 53 36 9 81 23 100 30 20 8 99
16 187 19 l152 6 5 -52 c3 -29 13 -165 21 -303 8 -137 18 -283 21 -322 6 -64
4 -73 -10 -73 -16 0 -17 -25 -11 -327 4 -181 10 -341 15 -358 5 -16 14 -49 20
-72 6 -26 17 -43 25 -43 8 0 15 -6 15 -14 0 -8 3 -21 6 -30 5 -14 -14 -16
-179 -16 -101 0 -205 3 -230 6 -43 6 -46 9 -57 48 -9 34 -8 48 4 78 12 27 16
72 16 170 l0 132 48 45 c26 25 60 62 75 81 24 31 28 33 37 18 14 -22 56 -23
64 -2 14 37 7 53 -26 56 -27 2 -34 8 -36 29 -2 21 2 28 21 33 24 6 44 47 32
66 -3 4 0 10 7 12 8 3 13 95 19 324 4 175 6 320 6 320 -3 3 -410 24 -412 22
-1 -2 -5 -37 -8 -79 -6 -71 -5 -77 13 -82 13 -3 20 -14 20 -30 0 -14 3 -32 6
-41 5 -12 0 -16 -20 -16 -26 0 -26 0 -26 -80 0 -73 2 -80 20 -80 17 0 20 -7
20 -41 0 -32 -4 -42 -19 -46 -14 -3 -20 -17 -25 -56 -13 -111 -18 -104 84
-112 49 -4 88 -11 85 -15 -9 -15 21 -18 46 -4 34 19 79 18 79 -2 0 -40 -63
-104 -102 -104 -8 0 -27 13 -43 30 -15 16 -44 35 -62 41 -48 15 -143 2 -183
-25 -32 -22 -33 -22 -86 -4 -29 10 -83 21 -121 24 l-69 6 -39 -36 c-54 -51
-78 -44 -99 28 -21 71 -21 71 19 46 53 -33 62 -19 16 25 l-41 40 32 7 c18 4
90 10 161 14 l127 7 0 29 c0 28 -1 28 -42 21 -71 -13 -172 -7 -229 13 -37 13
-72 37 -114 77 -32 31 -60 57 -62 57 -2 0 -3 -11 -3 -24 0 -52 15 -90 46 -122
40 -39 40 -40 14 -47 -13 -3 -24 3 -35 19 -20 31 -35 31 -35 -1 0 -30 -18 -36
-137 -44 l-23 -1 0 -400 0 -400 36 0 c21 0 42 6 48 15 11 14 68 22 203 28 42
1 65 7 68 15 3 8 0 42 -6 77 -7 34 -9 70 -6 78 9 23 47 10 47 -17 1 -11 9 -45
19 -75 12 -33 17 -68 14 -92 l-6 -39 -112 0 -112 0 -16 -37 c-17 -38 -17 -38
46 -238 l62 -200 215 -6 c118 -4 382 -12 587 -19 l372 -12 190 33 189 32 6 36
c3 20 20 108 36 196 33 178 35 207 18 235 -7 10 -10 22 -6 25 3 3 36 11 73 17
l67 11 -6 56 c-3 31 -36 378 -71 771 -36 393 -67 715 -68 716 -1 2 -119 -1
-262 -6 -142 -5 -261 -8 -262 -6 -2 2 -6 26 -10 55 -6 51 -6 51 23 52 16 0
139 8 274 17 l245 17 3 638 2 637 -117 -2 c-65 -1 -269 -5 -453 -8z m-446
-445 c-7 -55 -13 -106 -14 -112 0 -7 -13 -13 -29 -13 -28 0 -28 0 -35 82 -4
45 -8 83 -9 84 -1 1 -35 -1 -76 -3 l-74 -6 7 -78 c4 -44 4 -79 2 -79 -12 0
-56 24 -56 30 0 14 41 125 48 132 13 13 236 76 243 69 4 -3 1 -51 -7 -106z
m-544 47 l95 -17 34 -64 34 -64 -23 -19 c-12 -10 -25 -16 -30 -13 -4 2 -10 37
-13 76 -3 39 -8 73 -10 75 -2 2 -35 1 -73 -3 l-69 -8 3 -55 c2 -30 5 -67 8
-82 5 -26 3 -28 -25 -28 -27 0 -31 5 -40 38 -29 109 -41 161 -41 171 0 15 37
13 150 -7z m518 -471 c17 -33 32 -62 32 -65 0 -3 -35 -7 -77 -9 l-78 -3 82 -2
81 -2 4 -65 3 -65 -50 0 c-72 0 -470 -19 -532 -25 l-51 -5 -7 61 c-5 44 -4 64
5 69 9 6 9 9 1 11 -8 3 -3 26 16 70 l27 66 196 10 c107 5 222 10 255 11 l60 2
33 -59z m842 -595 c0 -2 -30 -14 -66 -27 -37 -13 -69 -29 -71 -36 -3 -7 21
-135 53 -284 42 -194 55 -272 47 -277 -16 -10 -193 -45 -198 -40 -4 4 -51 390
-62 508 l-6 66 144 46 c146 47 159 51 159 44z m-833 -915 c78 -36 129 -144
106 -224 l-9 -32 -127 -1 -127 0 0 106 c0 103 1 107 28 132 46 43 68 46 129
19z m-267 -6 c43 -22 72 -87 77 -170 5 -93 1 -97 -72 -85 -33 5 -90 10 -126
10 -61 0 -67 2 -73 23 -17 65 0 146 41 190 47 49 99 60 153 32z m14 -315 c56
-21 66 -43 66 -140 l0 -89 -35 -7 c-44 -8 -119 10 -158 38 -39 28 -67 91 -67
155 0 41 4 53 18 57 24 7 146 -2 176 -14z m347 -11 c34 -121 -46 -229 -171
-229 -66 0 -72 7 -78 93 -8 134 4 148 138 157 105 8 103 9 111 -21z"/>
<path d="M541 3302 c3 -95 3 -96 -21 -103 -14 -4 15 -7 68 -8 66 -1 92 -5 93
-13 0 -7 2 -40 4 -73 4 -57 18 -123 34 -155 4 -8 21 -14 37 -15 l29 0 3 -82
c2 -71 1 -82 -15 -86 -10 -2 16 -2 57 1 41 3 75 5 76 6 1 0 -4 137 -9 304 -10
294 -11 303 -31 307 -12 2 -90 6 -174 9 l-154 5 3 -97z"/>
<path d="M120 3297 c0 -70 -2 -76 -22 -80 -13 -2 -2 -5 25 -6 47 -1 47 -1 47
-35 0 -25 -5 -35 -19 -39 -17 -4 -20 -16 -23 -81 -3 -72 -2 -76 19 -76 16 0
23 -8 28 -30 8 -35 0 -50 -23 -50 -15 0 -17 -12 -17 -80 l0 -80 200 0 c110 0
195 4 189 8 -21 13 -27 56 -25 175 1 78 -4 134 -13 165 -8 26 -17 59 -20 73
-3 15 -14 29 -26 32 -18 5 -20 13 -20 86 l0 81 -82 0 c-46 0 -113 3 -150 7
l-68 6 0 -76z"/>
<path d="M1495 725 c-71 -8 -131 -14 -132 -14 -2 -1 -3 -15 -3 -33 0 -26 -14
-46 -85 -119 l-85 -86 0 -186 c0 -168 2 -186 18 -191 9 -2 88 -10 175 -17 150
-11 287 -9 555 7 l102 7 0 -25 c0 -23 6 -26 58 -36 31 -6 134 -16 227 -23 188
-13 401 -1 778 43 l187 22 0 293 0 292 -32 5 c-18 3 -96 7 -173 10 -77 4 -221
11 -320 17 -116 7 -209 8 -263 2 -64 -7 -85 -6 -90 3 -5 9 -86 17 -276 28
-312 18 -460 19 -641 1z"/>
</g>
</svg>
